# Tiled2Unity generated file. Do not modify by hand.
# Wavefront file for 'Level2_mesh_0013.obj'

# Vertices (Count = 20)
v -12416 -2688 0
v -12544 -2688 0
v -12544 -2560 0
v -12416 -2560 0
v -12032 -2944 0
v -12160 -2944 0
v -12160 -2816 0
v -12032 -2816 0
v -3200 -3072 0
v -3328 -3072 0
v -3328 -2944 0
v -3200 -2944 0
v -3072 -3328 0
v -3200 -3328 0
v -3200 -3200 0
v -3072 -3200 0
v -2944 -3584 0
v -3072 -3584 0
v -3072 -3456 0
v -2944 -3456 0

# Texture cooridinates (Count = 4)
vt 0 0
vt 1 0
vt 1 1
vt 0 1

# Normal
vn 0 0 -1

# Mesh description
g Level2_mesh_0013

# Faces
f 1/1/1 2/2/1 3/3/1 4/4/1
f 5/1/1 6/2/1 7/3/1 8/4/1
f 9/1/1 10/2/1 11/3/1 12/4/1
f 13/1/1 14/2/1 15/3/1 16/4/1
f 17/1/1 18/2/1 19/3/1 20/4/1

