# Tiled2Unity generated file. Do not modify by hand.
# Wavefront file for 'Level2_mesh_0011.obj'

# Vertices (Count = 20)
v -8448 -2560 0
v -8576 -2560 0
v -8576 -2467 0
v -8448 -2467 0
v -9088 -2560 0
v -9216 -2560 0
v -9216 -2467 0
v -9088 -2467 0
v -9728 -2560 0
v -9856 -2560 0
v -9856 -2467 0
v -9728 -2467 0
v -10368 -2560 0
v -10496 -2560 0
v -10496 -2467 0
v -10368 -2467 0
v -2560 -3072 0
v -2688 -3072 0
v -2688 -2979 0
v -2560 -2979 0

# Texture cooridinates (Count = 4)
vt 0 0
vt 1 0
vt 1 1
vt 0 1

# Normal
vn 0 0 -1

# Mesh description
g Level2_mesh_0011

# Faces
f 1/1/1 2/2/1 3/3/1 4/4/1
f 5/1/1 6/2/1 7/3/1 8/4/1
f 9/1/1 10/2/1 11/3/1 12/4/1
f 13/1/1 14/2/1 15/3/1 16/4/1
f 17/1/1 18/2/1 19/3/1 20/4/1

