# Tiled2Unity generated file. Do not modify by hand.
# Wavefront file for 'Level1_mesh_0006.obj'

# Vertices (Count = 528)
v -1824 -32 0
v -1856 -32 0
v -1856 0 0
v -1824 0 0
v -1824 -64 0
v -1856 -64 0
v -1856 -32 0
v -1824 -32 0
v -1824 -96 0
v -1856 -96 0
v -1856 -64 0
v -1824 -64 0
v 0 -128 0
v -32 -128 0
v -32 -96 0
v 0 -96 0
v 0 -160 0
v -32 -160 0
v -32 -128 0
v 0 -128 0
v -32 -160 0
v -64 -160 0
v -64 -128 0
v -32 -128 0
v 0 -192 0
v -32 -192 0
v -32 -160 0
v 0 -160 0
v -32 -192 0
v -64 -192 0
v -64 -160 0
v -32 -160 0
v -64 -192 0
v -96 -192 0
v -96 -160 0
v -64 -160 0
v 0 -224 0
v -32 -224 0
v -32 -192 0
v 0 -192 0
v -32 -224 0
v -64 -224 0
v -64 -192 0
v -32 -192 0
v -64 -224 0
v -96 -224 0
v -96 -192 0
v -64 -192 0
v -1632 -224 0
v -1664 -224 0
v -1664 -192 0
v -1632 -192 0
v -1664 -224 0
v -1696 -224 0
v -1696 -192 0
v -1664 -192 0
v -1728 -224 0
v -1760 -224 0
v -1760 -192 0
v -1728 -192 0
v 0 -256 0
v -32 -256 0
v -32 -224 0
v 0 -224 0
v -32 -256 0
v -64 -256 0
v -64 -224 0
v -32 -224 0
v -64 -256 0
v -96 -256 0
v -96 -224 0
v -64 -224 0
v -1632 -256 0
v -1664 -256 0
v -1664 -224 0
v -1632 -224 0
v -1664 -256 0
v -1696 -256 0
v -1696 -224 0
v -1664 -224 0
v -1728 -256 0
v -1760 -256 0
v -1760 -224 0
v -1728 -224 0
v 0 -288 0
v -32 -288 0
v -32 -256 0
v 0 -256 0
v -32 -288 0
v -64 -288 0
v -64 -256 0
v -32 -256 0
v -64 -288 0
v -96 -288 0
v -96 -256 0
v -64 -256 0
v -96 -288 0
v -128 -288 0
v -128 -256 0
v -96 -256 0
v -128 -288 0
v -160 -288 0
v -160 -256 0
v -128 -256 0
v -160 -288 0
v -192 -288 0
v -192 -256 0
v -160 -256 0
v -192 -288 0
v -224 -288 0
v -224 -256 0
v -192 -256 0
v 0 -320 0
v -32 -320 0
v -32 -288 0
v 0 -288 0
v -32 -320 0
v -64 -320 0
v -64 -288 0
v -32 -288 0
v -64 -320 0
v -96 -320 0
v -96 -288 0
v -64 -288 0
v -96 -320 0
v -128 -320 0
v -128 -288 0
v -96 -288 0
v -128 -320 0
v -160 -320 0
v -160 -288 0
v -128 -288 0
v -160 -320 0
v -192 -320 0
v -192 -288 0
v -160 -288 0
v -192 -320 0
v -224 -320 0
v -224 -288 0
v -192 -288 0
v -224 -320 0
v -256 -320 0
v -256 -288 0
v -224 -288 0
v 0 -352 0
v -32 -352 0
v -32 -320 0
v 0 -320 0
v -32 -352 0
v -64 -352 0
v -64 -320 0
v -32 -320 0
v -64 -352 0
v -96 -352 0
v -96 -320 0
v -64 -320 0
v -128 -352 0
v -160 -352 0
v -160 -320 0
v -128 -320 0
v -160 -352 0
v -192 -352 0
v -192 -320 0
v -160 -320 0
v -192 -352 0
v -224 -352 0
v -224 -320 0
v -192 -320 0
v -224 -352 0
v -256 -352 0
v -256 -320 0
v -224 -320 0
v 0 -384 0
v -32 -384 0
v -32 -352 0
v 0 -352 0
v -32 -384 0
v -64 -384 0
v -64 -352 0
v -32 -352 0
v -64 -384 0
v -96 -384 0
v -96 -352 0
v -64 -352 0
v -128 -384 0
v -160 -384 0
v -160 -352 0
v -128 -352 0
v -160 -384 0
v -192 -384 0
v -192 -352 0
v -160 -352 0
v -192 -384 0
v -224 -384 0
v -224 -352 0
v -192 -352 0
v -224 -384 0
v -256 -384 0
v -256 -352 0
v -224 -352 0
v -256 -384 0
v -288 -384 0
v -288 -352 0
v -256 -352 0
v -288 -384 0
v -320 -384 0
v -320 -352 0
v -288 -352 0
v -320 -384 0
v -352 -384 0
v -352 -352 0
v -320 -352 0
v -352 -384 0
v -384 -384 0
v -384 -352 0
v -352 -352 0
v -384 -384 0
v -416 -384 0
v -416 -352 0
v -384 -352 0
v -416 -384 0
v -448 -384 0
v -448 -352 0
v -416 -352 0
v -448 -384 0
v -480 -384 0
v -480 -352 0
v -448 -352 0
v -480 -384 0
v -512 -384 0
v -512 -352 0
v -480 -352 0
v -512 -384 0
v -544 -384 0
v -544 -352 0
v -512 -352 0
v -544 -384 0
v -576 -384 0
v -576 -352 0
v -544 -352 0
v -576 -384 0
v -608 -384 0
v -608 -352 0
v -576 -352 0
v -608 -384 0
v -640 -384 0
v -640 -352 0
v -608 -352 0
v -640 -384 0
v -672 -384 0
v -672 -352 0
v -640 -352 0
v -672 -384 0
v -704 -384 0
v -704 -352 0
v -672 -352 0
v -704 -384 0
v -736 -384 0
v -736 -352 0
v -704 -352 0
v -736 -384 0
v -768 -384 0
v -768 -352 0
v -736 -352 0
v 0 -416 0
v -32 -416 0
v -32 -384 0
v 0 -384 0
v -32 -416 0
v -64 -416 0
v -64 -384 0
v -32 -384 0
v -64 -416 0
v -96 -416 0
v -96 -384 0
v -64 -384 0
v -128 -416 0
v -160 -416 0
v -160 -384 0
v -128 -384 0
v -160 -416 0
v -192 -416 0
v -192 -384 0
v -160 -384 0
v -192 -416 0
v -224 -416 0
v -224 -384 0
v -192 -384 0
v -256 -416 0
v -288 -416 0
v -288 -384 0
v -256 -384 0
v -288 -416 0
v -320 -416 0
v -320 -384 0
v -288 -384 0
v -320 -416 0
v -352 -416 0
v -352 -384 0
v -320 -384 0
v -352 -416 0
v -384 -416 0
v -384 -384 0
v -352 -384 0
v -384 -416 0
v -416 -416 0
v -416 -384 0
v -384 -384 0
v -416 -416 0
v -448 -416 0
v -448 -384 0
v -416 -384 0
v -448 -416 0
v -480 -416 0
v -480 -384 0
v -448 -384 0
v -480 -416 0
v -512 -416 0
v -512 -384 0
v -480 -384 0
v -512 -416 0
v -544 -416 0
v -544 -384 0
v -512 -384 0
v -544 -416 0
v -576 -416 0
v -576 -384 0
v -544 -384 0
v -576 -416 0
v -608 -416 0
v -608 -384 0
v -576 -384 0
v -608 -416 0
v -640 -416 0
v -640 -384 0
v -608 -384 0
v -640 -416 0
v -672 -416 0
v -672 -384 0
v -640 -384 0
v -672 -416 0
v -704 -416 0
v -704 -384 0
v -672 -384 0
v -704 -416 0
v -736 -416 0
v -736 -384 0
v -704 -384 0
v -736 -416 0
v -768 -416 0
v -768 -384 0
v -736 -384 0
v 0 -448 0
v -32 -448 0
v -32 -416 0
v 0 -416 0
v -32 -448 0
v -64 -448 0
v -64 -416 0
v -32 -416 0
v -64 -448 0
v -96 -448 0
v -96 -416 0
v -64 -416 0
v -128 -448 0
v -160 -448 0
v -160 -416 0
v -128 -416 0
v -160 -448 0
v -192 -448 0
v -192 -416 0
v -160 -416 0
v -192 -448 0
v -224 -448 0
v -224 -416 0
v -192 -416 0
v -256 -448 0
v -288 -448 0
v -288 -416 0
v -256 -416 0
v -288 -448 0
v -320 -448 0
v -320 -416 0
v -288 -416 0
v -320 -448 0
v -352 -448 0
v -352 -416 0
v -320 -416 0
v -352 -448 0
v -384 -448 0
v -384 -416 0
v -352 -416 0
v -384 -448 0
v -416 -448 0
v -416 -416 0
v -384 -416 0
v -416 -448 0
v -448 -448 0
v -448 -416 0
v -416 -416 0
v -448 -448 0
v -480 -448 0
v -480 -416 0
v -448 -416 0
v -512 -448 0
v -544 -448 0
v -544 -416 0
v -512 -416 0
v -544 -448 0
v -576 -448 0
v -576 -416 0
v -544 -416 0
v -576 -448 0
v -608 -448 0
v -608 -416 0
v -576 -416 0
v -608 -448 0
v -640 -448 0
v -640 -416 0
v -608 -416 0
v -640 -448 0
v -672 -448 0
v -672 -416 0
v -640 -416 0
v -672 -448 0
v -704 -448 0
v -704 -416 0
v -672 -416 0
v -704 -448 0
v -736 -448 0
v -736 -416 0
v -704 -416 0
v -736 -448 0
v -768 -448 0
v -768 -416 0
v -736 -416 0
v 0 -480 0
v -32 -480 0
v -32 -448 0
v 0 -448 0
v -32 -480 0
v -64 -480 0
v -64 -448 0
v -32 -448 0
v -64 -480 0
v -96 -480 0
v -96 -448 0
v -64 -448 0
v -128 -480 0
v -160 -480 0
v -160 -448 0
v -128 -448 0
v -160 -480 0
v -192 -480 0
v -192 -448 0
v -160 -448 0
v -192 -480 0
v -224 -480 0
v -224 -448 0
v -192 -448 0
v -256 -480 0
v -288 -480 0
v -288 -448 0
v -256 -448 0
v -288 -480 0
v -320 -480 0
v -320 -448 0
v -288 -448 0
v -320 -480 0
v -352 -480 0
v -352 -448 0
v -320 -448 0
v -352 -480 0
v -384 -480 0
v -384 -448 0
v -352 -448 0
v -384 -480 0
v -416 -480 0
v -416 -448 0
v -384 -448 0
v -416 -480 0
v -448 -480 0
v -448 -448 0
v -416 -448 0
v -448 -480 0
v -480 -480 0
v -480 -448 0
v -448 -448 0
v -480 -480 0
v -512 -480 0
v -512 -448 0
v -480 -448 0
v -512 -480 0
v -544 -480 0
v -544 -448 0
v -512 -448 0
v -544 -480 0
v -576 -480 0
v -576 -448 0
v -544 -448 0
v -576 -480 0
v -608 -480 0
v -608 -448 0
v -576 -448 0
v -608 -480 0
v -640 -480 0
v -640 -448 0
v -608 -448 0
v -640 -480 0
v -672 -480 0
v -672 -448 0
v -640 -448 0
v -672 -480 0
v -704 -480 0
v -704 -448 0
v -672 -448 0
v -704 -480 0
v -736 -480 0
v -736 -448 0
v -704 -448 0
v -736 -480 0
v -768 -480 0
v -768 -448 0
v -736 -448 0
v -672 -512 0
v -704 -512 0
v -704 -480 0
v -672 -480 0

# Texture cooridinates (Count = 22)
vt 1 0.6
vt 0.8888889 0.6
vt 0.8888889 0.7
vt 1 0.7
vt 0.3333333 0.5
vt 0.4444444 0.5
vt 0.4444444 0.6
vt 0.3333333 0.6
vt 0.5555556 0.5
vt 0.5555556 0.6
vt 0.4444444 0.7
vt 0.3333333 0.7
vt 0.2222222 0.8
vt 0.3333333 0.8
vt 0.3333333 0.9
vt 0.2222222 0.9
vt 0.2222222 0.7
vt 0.2222222 0.6
vt 0.5555556 0.7
vt 0.2222222 0.5
vt 0.3333333 1
vt 0.2222222 1

# Normal
vn 0 0 -1

# Mesh description
g Level1_mesh_0006

# Faces
f 1/1/1 2/2/1 3/3/1 4/4/1
f 5/1/1 6/2/1 7/3/1 8/4/1
f 9/1/1 10/2/1 11/3/1 12/4/1
f 13/5/1 14/6/1 15/7/1 16/8/1
f 17/5/1 18/6/1 19/7/1 20/8/1
f 21/6/1 22/9/1 23/10/1 24/7/1
f 25/5/1 26/6/1 27/7/1 28/8/1
f 29/6/1 30/9/1 31/10/1 32/7/1
f 33/8/1 34/7/1 35/11/1 36/12/1
f 37/5/1 38/6/1 39/7/1 40/8/1
f 41/6/1 42/9/1 43/10/1 44/7/1
f 45/8/1 46/7/1 47/11/1 48/12/1
f 49/13/1 50/14/1 51/15/1 52/16/1
f 53/13/1 54/14/1 55/15/1 56/16/1
f 57/13/1 58/14/1 59/15/1 60/16/1
f 61/5/1 62/6/1 63/7/1 64/8/1
f 65/6/1 66/9/1 67/10/1 68/7/1
f 69/8/1 70/7/1 71/11/1 72/12/1
f 73/17/1 74/12/1 75/14/1 76/13/1
f 77/17/1 78/12/1 79/14/1 80/13/1
f 81/17/1 82/12/1 83/14/1 84/13/1
f 85/5/1 86/6/1 87/7/1 88/8/1
f 89/6/1 90/9/1 91/10/1 92/7/1
f 93/8/1 94/7/1 95/11/1 96/12/1
f 97/8/1 98/7/1 99/11/1 100/12/1
f 101/18/1 102/8/1 103/12/1 104/17/1
f 105/8/1 106/7/1 107/11/1 108/12/1
f 109/7/1 110/10/1 111/19/1 112/11/1
f 113/5/1 114/6/1 115/7/1 116/8/1
f 117/6/1 118/9/1 119/10/1 120/7/1
f 121/8/1 122/7/1 123/11/1 124/12/1
f 125/8/1 126/7/1 127/11/1 128/12/1
f 129/20/1 130/5/1 131/8/1 132/18/1
f 133/5/1 134/6/1 135/7/1 136/8/1
f 137/6/1 138/9/1 139/10/1 140/7/1
f 141/2/1 142/1/1 143/4/1 144/3/1
f 145/5/1 146/6/1 147/7/1 148/8/1
f 149/6/1 150/9/1 151/10/1 152/7/1
f 153/8/1 154/7/1 155/11/1 156/12/1
f 157/20/1 158/5/1 159/8/1 160/18/1
f 161/5/1 162/6/1 163/7/1 164/8/1
f 165/6/1 166/9/1 167/10/1 168/7/1
f 169/2/1 170/1/1 171/4/1 172/3/1
f 173/5/1 174/6/1 175/7/1 176/8/1
f 177/6/1 178/9/1 179/10/1 180/7/1
f 181/8/1 182/7/1 183/11/1 184/12/1
f 185/20/1 186/5/1 187/8/1 188/18/1
f 189/5/1 190/6/1 191/7/1 192/8/1
f 193/6/1 194/9/1 195/10/1 196/7/1
f 197/2/1 198/1/1 199/4/1 200/3/1
f 201/13/1 202/14/1 203/15/1 204/16/1
f 205/13/1 206/14/1 207/15/1 208/16/1
f 209/13/1 210/14/1 211/15/1 212/16/1
f 213/13/1 214/14/1 215/15/1 216/16/1
f 217/13/1 218/14/1 219/15/1 220/16/1
f 221/13/1 222/14/1 223/15/1 224/16/1
f 225/13/1 226/14/1 227/15/1 228/16/1
f 229/13/1 230/14/1 231/15/1 232/16/1
f 233/13/1 234/14/1 235/15/1 236/16/1
f 237/13/1 238/14/1 239/15/1 240/16/1
f 241/13/1 242/14/1 243/15/1 244/16/1
f 245/13/1 246/14/1 247/15/1 248/16/1
f 249/13/1 250/14/1 251/15/1 252/16/1
f 253/13/1 254/14/1 255/15/1 256/16/1
f 257/13/1 258/14/1 259/15/1 260/16/1
f 261/13/1 262/14/1 263/15/1 264/16/1
f 265/5/1 266/6/1 267/7/1 268/8/1
f 269/6/1 270/9/1 271/10/1 272/7/1
f 273/8/1 274/7/1 275/11/1 276/12/1
f 277/20/1 278/5/1 279/8/1 280/18/1
f 281/5/1 282/6/1 283/7/1 284/8/1
f 285/6/1 286/9/1 287/10/1 288/7/1
f 289/17/1 290/12/1 291/14/1 292/13/1
f 293/17/1 294/12/1 295/14/1 296/13/1
f 297/17/1 298/12/1 299/14/1 300/13/1
f 301/17/1 302/12/1 303/14/1 304/13/1
f 305/17/1 306/12/1 307/14/1 308/13/1
f 309/17/1 310/12/1 311/14/1 312/13/1
f 313/17/1 314/12/1 315/14/1 316/13/1
f 317/17/1 318/12/1 319/14/1 320/13/1
f 321/17/1 322/12/1 323/14/1 324/13/1
f 325/17/1 326/12/1 327/14/1 328/13/1
f 329/17/1 330/12/1 331/14/1 332/13/1
f 333/17/1 334/12/1 335/14/1 336/13/1
f 337/17/1 338/12/1 339/14/1 340/13/1
f 341/17/1 342/12/1 343/14/1 344/13/1
f 345/17/1 346/12/1 347/14/1 348/13/1
f 349/17/1 350/12/1 351/14/1 352/13/1
f 353/5/1 354/6/1 355/7/1 356/8/1
f 357/6/1 358/9/1 359/10/1 360/7/1
f 361/8/1 362/7/1 363/11/1 364/12/1
f 365/20/1 366/5/1 367/8/1 368/18/1
f 369/5/1 370/6/1 371/7/1 372/8/1
f 373/6/1 374/9/1 375/10/1 376/7/1
f 377/18/1 378/8/1 379/12/1 380/17/1
f 381/18/1 382/8/1 383/12/1 384/17/1
f 385/18/1 386/8/1 387/12/1 388/17/1
f 389/18/1 390/8/1 391/12/1 392/17/1
f 393/18/1 394/8/1 395/12/1 396/17/1
f 397/18/1 398/8/1 399/12/1 400/17/1
f 401/18/1 402/8/1 403/12/1 404/17/1
f 405/18/1 406/8/1 407/12/1 408/17/1
f 409/18/1 410/8/1 411/12/1 412/17/1
f 413/18/1 414/8/1 415/12/1 416/17/1
f 417/18/1 418/8/1 419/12/1 420/17/1
f 421/18/1 422/8/1 423/12/1 424/17/1
f 425/18/1 426/8/1 427/12/1 428/17/1
f 429/18/1 430/8/1 431/12/1 432/17/1
f 433/18/1 434/8/1 435/12/1 436/17/1
f 437/5/1 438/6/1 439/7/1 440/8/1
f 441/6/1 442/9/1 443/10/1 444/7/1
f 445/8/1 446/7/1 447/11/1 448/12/1
f 449/20/1 450/5/1 451/8/1 452/18/1
f 453/5/1 454/6/1 455/7/1 456/8/1
f 457/6/1 458/9/1 459/10/1 460/7/1
f 461/20/1 462/5/1 463/8/1 464/18/1
f 465/20/1 466/5/1 467/8/1 468/18/1
f 469/20/1 470/5/1 471/8/1 472/18/1
f 473/20/1 474/5/1 475/8/1 476/18/1
f 477/20/1 478/5/1 479/8/1 480/18/1
f 481/20/1 482/5/1 483/8/1 484/18/1
f 485/20/1 486/5/1 487/8/1 488/18/1
f 489/20/1 490/5/1 491/8/1 492/18/1
f 493/20/1 494/5/1 495/8/1 496/18/1
f 497/20/1 498/5/1 499/8/1 500/18/1
f 501/20/1 502/5/1 503/8/1 504/18/1
f 505/20/1 506/5/1 507/8/1 508/18/1
f 509/20/1 510/5/1 511/8/1 512/18/1
f 513/20/1 514/5/1 515/8/1 516/18/1
f 517/20/1 518/5/1 519/8/1 520/18/1
f 521/20/1 522/5/1 523/8/1 524/18/1
f 525/16/1 526/15/1 527/21/1 528/22/1

