# Tiled2Unity generated file. Do not modify by hand.
# Wavefront file for 'Level1_mesh_0001.obj'

# Vertices (Count = 20)
v -1440 -192 0
v -1472 -192 0
v -1472 -160 0
v -1440 -160 0
v -160 -224 0
v -192 -224 0
v -192 -192 0
v -160 -192 0
v -1152 -224 0
v -1184 -224 0
v -1184 -192 0
v -1152 -192 0
v -1472 -224 0
v -1504 -224 0
v -1504 -192 0
v -1472 -192 0
v -1120 -256 0
v -1152 -256 0
v -1152 -224 0
v -1120 -224 0

# Texture cooridinates (Count = 8)
vt 0.9166667 0.3333333
vt 0.8333333 0.3333333
vt 0.8333333 0
vt 0.9166667 0
vt 0.4166667 0.3333333
vt 0.5 0.3333333
vt 0.5 0
vt 0.4166667 0

# Normal
vn 0 0 -1

# Mesh description
g Level1_mesh_0001

# Faces
f 1/1/1 2/2/1 3/3/1 4/4/1
f 5/5/1 6/6/1 7/7/1 8/8/1
f 9/6/1 10/5/1 11/8/1 12/7/1
f 13/1/1 14/2/1 15/3/1 16/4/1
f 17/6/1 18/5/1 19/8/1 20/7/1

